<?xml version="1.0" encoding="UTF-8"?>
<svg width="1440px" height="825px" viewBox="0 0 1440 825" version="1.1" xmlns="http://www.w3.org/2000/svg" xmlns:xlink="http://www.w3.org/1999/xlink">
    <!-- Generator: sketchtool 55.2 (78181) - https://sketchapp.com -->
    <title>497D95C2-3632-461E-9F07-3D090B465DE7</title>
    <desc>Created with sketchtool.</desc>
    <defs>
        <polygon id="path-1" points="825.946337 1440 0.946337275 1440 0.946337275 0 825.946337 0"></polygon>
    </defs>
    <g id="LOGIN" stroke="none" stroke-width="1" fill="none" fill-rule="evenodd">
        <g id="Login">
            <g id="BG" transform="translate(720.000000, 412.946337) rotate(-90.000000) translate(-720.000000, -412.946337) translate(307.000000, -307.053663)">
                <mask id="mask-2" fill="white">
                    <use xlink:href="#path-1"></use>
                </mask>
                <g id="Rectangle"></g>
                <g id="Group-2" mask="url(#mask-2)" fill-rule="nonzero">
                    <g transform="translate(-384.553663, -435.000000)" id="Path">
                        <path d="M767.14,1141.17232 C770.704507,1137.838 785.900563,1118.64482 791.174366,1118.64482 C821.37535,1090.29828 853.934725,1064.57285 888.5,1041.74703 C873.519343,1033.74466 858.545634,1025.72145 843.578873,1017.6774 C284.57662,717.525958 554.700292,117.201395 467.547053,-4.54747351e-13 L0.5,1333 C202.837466,1248.96784 424.703649,1223.39361 640.860563,1259.18646 C683.009296,1219.89704 725.102441,1180.559 767.14,1141.17232 Z" fill="#F8F2EC"></path>
                        <path d="M1184.11248,1185.44401 C1202.8802,1193.16493 1222.12754,1200.42678 1241.5,1207 L1382.55366,844.168932 C1256.64611,850.342703 993.66406,972.133365 888.5,1041.6887 C985.112063,1093.37717 1082.43313,1143.91794 1184.11248,1185.44401 Z" fill="#3375E2" style="mix-blend-mode: hard-light;"></path>
                        <path d="M888.343655,1043 C853.764305,1065.79729 821.1921,1091.48834 790.979485,1119.79516 C785.76392,1119.79516 770.492745,1138.96273 766.925299,1142.2926 C724.839165,1181.68221 682.697399,1220.96775 640.5,1260.14924 C869.317273,1297.90165 1081.96629,1402.85504 1241.5,1564 L1241.5,1207.87026 C1222.11896,1201.31457 1202.9674,1194.0721 1184.08706,1186.37177 C1082.36268,1144.9565 984.998507,1094.55057 888.343655,1043 Z" fill="#F8F2EC" style="mix-blend-mode: hard-light;"></path>
                        <path d="M888.141519,1042 C853.429427,1064.8848 820.732185,1090.67448 790.40359,1119.08996 C785.168004,1119.08996 769.838207,1138.33111 766.257066,1141.67376 C724.009373,1181.21457 681.705834,1220.65093 639.346449,1259.98282 C869.042099,1297.88016 1082.50743,1403.23644 1242.65355,1565 L1242.65355,1207.50316 C1223.19811,1200.92231 1203.97304,1193.65203 1185.02021,1185.92215 C1082.90534,1144.34789 985.167408,1093.74846 888.141519,1042 Z" fill="#3375E2" style="mix-blend-mode: hard-light;"></path>
                        <path d="M156.770833,1662.6418 C213.291667,1643.04288 263.583333,1608.68223 309.916667,1570.90219 C389.3125,1505.93387 458.770833,1430.20699 533.625,1360.35979 C569.583333,1326.83313 605.541667,1293.29258 641.5,1259.73812 C425.464795,1223.9274 203.723537,1249.5144 1.5,1333.5885 L1.5,1670.39796 C52.9342911,1682.71331 106.817537,1680.02171 156.770833,1662.6418 Z" fill="#F8F2EC" style="mix-blend-mode: hard-light;"></path>
                        <path d="M156.770833,1662.6418 C213.291667,1643.04288 263.583333,1608.68223 309.916667,1570.90219 C389.3125,1505.93387 458.770833,1430.20699 533.625,1360.35979 C569.583333,1326.83313 605.541667,1293.29258 641.5,1259.73812 C425.464795,1223.9274 203.723537,1249.5144 1.5,1333.5885 L1.5,1670.39796 C52.9342911,1682.71331 106.817537,1680.02171 156.770833,1662.6418 Z" fill="#0A52C8" style="mix-blend-mode: hard-light;"></path>
                        <path d="M532.482563,1359.09036 C457.578098,1428.97376 388.073092,1504.73987 308.540519,1569.65841 C262.176052,1607.54147 211.850591,1641.91993 155.291779,1661.44556 C105.338586,1678.84594 51.4503243,1681.56778 -1.13686838e-13,1669.28918 L-1.13686838e-13,2004.5 L1241,2004.5 L1241,1563.06643 C1081.58045,1401.45847 869.083591,1296.25789 640.43005,1258.5 C604.475351,1292.03012 568.492855,1325.56024 532.482563,1359.09036 Z" fill="#F8F2EC" style="mix-blend-mode: hard-light;"></path>
                        <path d="M532.482563,1359.09036 C457.578098,1428.97376 388.073092,1504.73987 308.540519,1569.65841 C262.176052,1607.54147 211.850591,1641.91993 155.291779,1661.44556 C105.338586,1678.84594 51.4503243,1681.56778 -1.13686838e-13,1669.28918 L-1.13686838e-13,2004.5 L1241,2004.5 L1241,1563.06643 C1081.58045,1401.45847 869.083591,1296.25789 640.43005,1258.5 C604.475351,1292.03012 568.492855,1325.56024 532.482563,1359.09036 Z" fill="#3375E2" style="mix-blend-mode: hard-light;"></path>
                        <path d="M532.482563,1359.09036 C457.578098,1428.97376 388.073092,1504.73987 308.540519,1569.65841 C262.176052,1607.54147 211.850591,1641.91993 155.291779,1661.44556 C105.338586,1678.84594 51.4503243,1681.56778 -1.13686838e-13,1669.28918 L-1.13686838e-13,2004.5 L1241,2004.5 L1241,1563.06643 C1081.58045,1401.45847 869.083591,1296.25789 640.43005,1258.5 C604.475351,1292.03012 568.492855,1325.56024 532.482563,1359.09036 Z" fill="#0A52C8" style="mix-blend-mode: hard-light;"></path>
                    </g>
                </g>
            </g>
        </g>
    </g>
</svg>